<mxfile host="app.diagrams.net" modified="2022-10-26T08:56:47.788Z" agent="5.0 (X11; Linux x86_64) AppleWebKit/537.36 (KHTML, like Gecko) Chrome/105.0.0.0 Safari/537.36" etag="u8AMnYfGP3tJ-KHz-7ZS" version="20.5.1" type="github">
  <diagram id="C5RBs43oDa-KdzZeNtuy" name="Page-1">
    <mxGraphModel dx="1182" dy="722" grid="1" gridSize="10" guides="1" tooltips="1" connect="1" arrows="1" fold="1" page="1" pageScale="1" pageWidth="827" pageHeight="1169" math="0" shadow="0">
      <root>
        <mxCell id="WIyWlLk6GJQsqaUBKTNV-0" />
        <mxCell id="WIyWlLk6GJQsqaUBKTNV-1" parent="WIyWlLk6GJQsqaUBKTNV-0" />
        <mxCell id="vZsECd-TPxy-p9VHk9jS-8" value="" style="edgeStyle=orthogonalEdgeStyle;rounded=0;orthogonalLoop=1;jettySize=auto;html=1;" edge="1" parent="WIyWlLk6GJQsqaUBKTNV-1" source="vZsECd-TPxy-p9VHk9jS-0" target="vZsECd-TPxy-p9VHk9jS-7">
          <mxGeometry relative="1" as="geometry" />
        </mxCell>
        <mxCell id="vZsECd-TPxy-p9VHk9jS-0" value="Input" style="rounded=1;whiteSpace=wrap;html=1;" vertex="1" parent="WIyWlLk6GJQsqaUBKTNV-1">
          <mxGeometry x="320" y="220" width="120" height="60" as="geometry" />
        </mxCell>
        <mxCell id="vZsECd-TPxy-p9VHk9jS-6" style="edgeStyle=orthogonalEdgeStyle;rounded=0;orthogonalLoop=1;jettySize=auto;html=1;entryX=0.5;entryY=0;entryDx=0;entryDy=0;" edge="1" parent="WIyWlLk6GJQsqaUBKTNV-1" source="vZsECd-TPxy-p9VHk9jS-2" target="vZsECd-TPxy-p9VHk9jS-0">
          <mxGeometry relative="1" as="geometry" />
        </mxCell>
        <mxCell id="vZsECd-TPxy-p9VHk9jS-2" value="Data" style="swimlane;fontStyle=0;childLayout=stackLayout;horizontal=1;startSize=30;horizontalStack=0;resizeParent=1;resizeParentMax=0;resizeLast=0;collapsible=1;marginBottom=0;" vertex="1" parent="WIyWlLk6GJQsqaUBKTNV-1">
          <mxGeometry x="310" y="50" width="140" height="120" as="geometry" />
        </mxCell>
        <mxCell id="vZsECd-TPxy-p9VHk9jS-3" value="IndexOfRoot = 0" style="text;strokeColor=none;fillColor=none;align=left;verticalAlign=middle;spacingLeft=4;spacingRight=4;overflow=hidden;points=[[0,0.5],[1,0.5]];portConstraint=eastwest;rotatable=0;" vertex="1" parent="vZsECd-TPxy-p9VHk9jS-2">
          <mxGeometry y="30" width="140" height="30" as="geometry" />
        </mxCell>
        <mxCell id="vZsECd-TPxy-p9VHk9jS-4" value="IndexOfBranch = 0" style="text;strokeColor=none;fillColor=none;align=left;verticalAlign=middle;spacingLeft=4;spacingRight=4;overflow=hidden;points=[[0,0.5],[1,0.5]];portConstraint=eastwest;rotatable=0;" vertex="1" parent="vZsECd-TPxy-p9VHk9jS-2">
          <mxGeometry y="60" width="140" height="30" as="geometry" />
        </mxCell>
        <mxCell id="vZsECd-TPxy-p9VHk9jS-5" value="Response Code = 500" style="text;strokeColor=none;fillColor=none;align=left;verticalAlign=middle;spacingLeft=4;spacingRight=4;overflow=hidden;points=[[0,0.5],[1,0.5]];portConstraint=eastwest;rotatable=0;" vertex="1" parent="vZsECd-TPxy-p9VHk9jS-2">
          <mxGeometry y="90" width="140" height="30" as="geometry" />
        </mxCell>
        <mxCell id="vZsECd-TPxy-p9VHk9jS-32" value="" style="edgeStyle=orthogonalEdgeStyle;rounded=0;orthogonalLoop=1;jettySize=auto;html=1;fontSize=12;" edge="1" parent="WIyWlLk6GJQsqaUBKTNV-1" source="vZsECd-TPxy-p9VHk9jS-7" target="vZsECd-TPxy-p9VHk9jS-31">
          <mxGeometry relative="1" as="geometry" />
        </mxCell>
        <mxCell id="vZsECd-TPxy-p9VHk9jS-7" value="Is IndexOfLastRoot 0 ?&amp;nbsp;" style="whiteSpace=wrap;html=1;rounded=1;" vertex="1" parent="WIyWlLk6GJQsqaUBKTNV-1">
          <mxGeometry x="300" y="350" width="160" height="60" as="geometry" />
        </mxCell>
        <mxCell id="vZsECd-TPxy-p9VHk9jS-16" value="" style="edgeStyle=orthogonalEdgeStyle;rounded=0;orthogonalLoop=1;jettySize=auto;html=1;" edge="1" parent="WIyWlLk6GJQsqaUBKTNV-1" source="vZsECd-TPxy-p9VHk9jS-9" target="vZsECd-TPxy-p9VHk9jS-15">
          <mxGeometry relative="1" as="geometry" />
        </mxCell>
        <mxCell id="vZsECd-TPxy-p9VHk9jS-19" value="" style="edgeStyle=orthogonalEdgeStyle;rounded=0;orthogonalLoop=1;jettySize=auto;html=1;" edge="1" parent="WIyWlLk6GJQsqaUBKTNV-1" source="vZsECd-TPxy-p9VHk9jS-9" target="vZsECd-TPxy-p9VHk9jS-18">
          <mxGeometry relative="1" as="geometry" />
        </mxCell>
        <mxCell id="vZsECd-TPxy-p9VHk9jS-9" value="Last Response Code?" style="whiteSpace=wrap;html=1;rounded=1;" vertex="1" parent="WIyWlLk6GJQsqaUBKTNV-1">
          <mxGeometry x="540" y="490" width="120" height="60" as="geometry" />
        </mxCell>
        <mxCell id="vZsECd-TPxy-p9VHk9jS-39" value="" style="edgeStyle=orthogonalEdgeStyle;rounded=0;orthogonalLoop=1;jettySize=auto;html=1;fontSize=12;" edge="1" parent="WIyWlLk6GJQsqaUBKTNV-1" source="vZsECd-TPxy-p9VHk9jS-11" target="vZsECd-TPxy-p9VHk9jS-38">
          <mxGeometry relative="1" as="geometry" />
        </mxCell>
        <mxCell id="vZsECd-TPxy-p9VHk9jS-11" value="make Request to IndexOfRoot 0 &amp;amp; IndexOfBranch 0" style="whiteSpace=wrap;html=1;rounded=1;" vertex="1" parent="WIyWlLk6GJQsqaUBKTNV-1">
          <mxGeometry x="320" y="610" width="120" height="60" as="geometry" />
        </mxCell>
        <mxCell id="vZsECd-TPxy-p9VHk9jS-13" value="No" style="text;html=1;align=center;verticalAlign=middle;resizable=0;points=[];autosize=1;strokeColor=none;fillColor=none;" vertex="1" parent="WIyWlLk6GJQsqaUBKTNV-1">
          <mxGeometry x="470" y="482" width="40" height="30" as="geometry" />
        </mxCell>
        <mxCell id="vZsECd-TPxy-p9VHk9jS-14" value="Yes" style="text;html=1;align=center;verticalAlign=middle;resizable=0;points=[];autosize=1;strokeColor=none;fillColor=none;" vertex="1" parent="WIyWlLk6GJQsqaUBKTNV-1">
          <mxGeometry x="380" y="435" width="40" height="30" as="geometry" />
        </mxCell>
        <mxCell id="vZsECd-TPxy-p9VHk9jS-15" value="+1 IndexOfRoot&lt;br&gt;and go to the next Root" style="whiteSpace=wrap;html=1;rounded=1;" vertex="1" parent="WIyWlLk6GJQsqaUBKTNV-1">
          <mxGeometry x="540" y="610" width="120" height="60" as="geometry" />
        </mxCell>
        <mxCell id="vZsECd-TPxy-p9VHk9jS-17" value="200" style="text;html=1;align=center;verticalAlign=middle;resizable=0;points=[];autosize=1;strokeColor=none;fillColor=none;" vertex="1" parent="WIyWlLk6GJQsqaUBKTNV-1">
          <mxGeometry x="600" y="572" width="40" height="30" as="geometry" />
        </mxCell>
        <mxCell id="vZsECd-TPxy-p9VHk9jS-18" value="+1 IndexOfBranch and try next branch" style="whiteSpace=wrap;html=1;rounded=1;" vertex="1" parent="WIyWlLk6GJQsqaUBKTNV-1">
          <mxGeometry x="740" y="490" width="120" height="60" as="geometry" />
        </mxCell>
        <mxCell id="vZsECd-TPxy-p9VHk9jS-20" value="500" style="text;html=1;align=center;verticalAlign=middle;resizable=0;points=[];autosize=1;strokeColor=none;fillColor=none;" vertex="1" parent="WIyWlLk6GJQsqaUBKTNV-1">
          <mxGeometry x="680" y="482" width="40" height="30" as="geometry" />
        </mxCell>
        <mxCell id="vZsECd-TPxy-p9VHk9jS-21" value="Root = Expert Klein" style="text;html=1;align=center;verticalAlign=middle;resizable=0;points=[];autosize=1;strokeColor=none;fillColor=none;fontSize=17;" vertex="1" parent="WIyWlLk6GJQsqaUBKTNV-1">
          <mxGeometry x="20" y="30" width="170" height="30" as="geometry" />
        </mxCell>
        <mxCell id="vZsECd-TPxy-p9VHk9jS-22" value="Branch = Wallau" style="text;html=1;align=center;verticalAlign=middle;resizable=0;points=[];autosize=1;strokeColor=none;fillColor=none;fontSize=17;" vertex="1" parent="WIyWlLk6GJQsqaUBKTNV-1">
          <mxGeometry x="19" y="60" width="150" height="30" as="geometry" />
        </mxCell>
        <mxCell id="vZsECd-TPxy-p9VHk9jS-23" value="+1 IndexOfLast Return Data" style="whiteSpace=wrap;html=1;rounded=1;" vertex="1" parent="WIyWlLk6GJQsqaUBKTNV-1">
          <mxGeometry x="770" y="860" width="120" height="60" as="geometry" />
        </mxCell>
        <mxCell id="vZsECd-TPxy-p9VHk9jS-53" style="edgeStyle=orthogonalEdgeStyle;rounded=0;orthogonalLoop=1;jettySize=auto;html=1;entryX=1;entryY=0.5;entryDx=0;entryDy=0;fontSize=12;" edge="1" parent="WIyWlLk6GJQsqaUBKTNV-1" source="vZsECd-TPxy-p9VHk9jS-25" target="vZsECd-TPxy-p9VHk9jS-52">
          <mxGeometry relative="1" as="geometry" />
        </mxCell>
        <mxCell id="vZsECd-TPxy-p9VHk9jS-25" value="Data" style="swimlane;fontStyle=0;childLayout=stackLayout;horizontal=1;startSize=30;horizontalStack=0;resizeParent=1;resizeParentMax=0;resizeLast=0;collapsible=1;marginBottom=0;fontSize=12;" vertex="1" parent="WIyWlLk6GJQsqaUBKTNV-1">
          <mxGeometry x="310" y="1000" width="140" height="120" as="geometry" />
        </mxCell>
        <mxCell id="vZsECd-TPxy-p9VHk9jS-26" value="IndexOfRoot = 1" style="text;strokeColor=none;fillColor=none;align=left;verticalAlign=middle;spacingLeft=4;spacingRight=4;overflow=hidden;points=[[0,0.5],[1,0.5]];portConstraint=eastwest;rotatable=0;fontSize=12;" vertex="1" parent="vZsECd-TPxy-p9VHk9jS-25">
          <mxGeometry y="30" width="140" height="30" as="geometry" />
        </mxCell>
        <mxCell id="vZsECd-TPxy-p9VHk9jS-27" value="IndexOfBranch = 0" style="text;strokeColor=none;fillColor=none;align=left;verticalAlign=middle;spacingLeft=4;spacingRight=4;overflow=hidden;points=[[0,0.5],[1,0.5]];portConstraint=eastwest;rotatable=0;fontSize=12;" vertex="1" parent="vZsECd-TPxy-p9VHk9jS-25">
          <mxGeometry y="60" width="140" height="30" as="geometry" />
        </mxCell>
        <mxCell id="vZsECd-TPxy-p9VHk9jS-28" value="ResponseCode = 200" style="text;strokeColor=none;fillColor=none;align=left;verticalAlign=middle;spacingLeft=4;spacingRight=4;overflow=hidden;points=[[0,0.5],[1,0.5]];portConstraint=eastwest;rotatable=0;fontSize=12;" vertex="1" parent="vZsECd-TPxy-p9VHk9jS-25">
          <mxGeometry y="90" width="140" height="30" as="geometry" />
        </mxCell>
        <mxCell id="vZsECd-TPxy-p9VHk9jS-34" value="" style="edgeStyle=orthogonalEdgeStyle;rounded=0;orthogonalLoop=1;jettySize=auto;html=1;fontSize=12;" edge="1" parent="WIyWlLk6GJQsqaUBKTNV-1" source="vZsECd-TPxy-p9VHk9jS-31">
          <mxGeometry relative="1" as="geometry">
            <mxPoint x="380" y="610" as="targetPoint" />
          </mxGeometry>
        </mxCell>
        <mxCell id="vZsECd-TPxy-p9VHk9jS-36" style="edgeStyle=orthogonalEdgeStyle;rounded=0;orthogonalLoop=1;jettySize=auto;html=1;fontSize=12;" edge="1" parent="WIyWlLk6GJQsqaUBKTNV-1" source="vZsECd-TPxy-p9VHk9jS-31" target="vZsECd-TPxy-p9VHk9jS-9">
          <mxGeometry relative="1" as="geometry" />
        </mxCell>
        <mxCell id="vZsECd-TPxy-p9VHk9jS-31" value="Is IndexOfLastBranch 0 ?" style="whiteSpace=wrap;html=1;rounded=1;" vertex="1" parent="WIyWlLk6GJQsqaUBKTNV-1">
          <mxGeometry x="300" y="490" width="160" height="60" as="geometry" />
        </mxCell>
        <mxCell id="vZsECd-TPxy-p9VHk9jS-35" value="Yes" style="text;html=1;align=center;verticalAlign=middle;resizable=0;points=[];autosize=1;strokeColor=none;fillColor=none;fontSize=12;" vertex="1" parent="WIyWlLk6GJQsqaUBKTNV-1">
          <mxGeometry x="380" y="565" width="40" height="30" as="geometry" />
        </mxCell>
        <mxCell id="vZsECd-TPxy-p9VHk9jS-41" value="" style="edgeStyle=orthogonalEdgeStyle;rounded=0;orthogonalLoop=1;jettySize=auto;html=1;fontSize=12;" edge="1" parent="WIyWlLk6GJQsqaUBKTNV-1" source="vZsECd-TPxy-p9VHk9jS-38" target="vZsECd-TPxy-p9VHk9jS-40">
          <mxGeometry relative="1" as="geometry" />
        </mxCell>
        <mxCell id="vZsECd-TPxy-p9VHk9jS-44" value="" style="edgeStyle=orthogonalEdgeStyle;rounded=0;orthogonalLoop=1;jettySize=auto;html=1;fontSize=12;" edge="1" parent="WIyWlLk6GJQsqaUBKTNV-1" source="vZsECd-TPxy-p9VHk9jS-38" target="vZsECd-TPxy-p9VHk9jS-43">
          <mxGeometry relative="1" as="geometry" />
        </mxCell>
        <mxCell id="vZsECd-TPxy-p9VHk9jS-38" value="ResponseCode?" style="whiteSpace=wrap;html=1;rounded=1;" vertex="1" parent="WIyWlLk6GJQsqaUBKTNV-1">
          <mxGeometry x="320" y="730" width="120" height="60" as="geometry" />
        </mxCell>
        <mxCell id="vZsECd-TPxy-p9VHk9jS-46" style="edgeStyle=orthogonalEdgeStyle;rounded=0;orthogonalLoop=1;jettySize=auto;html=1;entryX=0.5;entryY=0;entryDx=0;entryDy=0;fontSize=12;" edge="1" parent="WIyWlLk6GJQsqaUBKTNV-1" source="vZsECd-TPxy-p9VHk9jS-40" target="vZsECd-TPxy-p9VHk9jS-25">
          <mxGeometry relative="1" as="geometry" />
        </mxCell>
        <mxCell id="vZsECd-TPxy-p9VHk9jS-40" value="+1 IndexOfLastRoot Return Data" style="whiteSpace=wrap;html=1;rounded=1;" vertex="1" parent="WIyWlLk6GJQsqaUBKTNV-1">
          <mxGeometry x="320" y="870" width="120" height="60" as="geometry" />
        </mxCell>
        <mxCell id="vZsECd-TPxy-p9VHk9jS-42" value="200" style="text;html=1;align=center;verticalAlign=middle;resizable=0;points=[];autosize=1;strokeColor=none;fillColor=none;fontSize=12;" vertex="1" parent="WIyWlLk6GJQsqaUBKTNV-1">
          <mxGeometry x="390" y="820" width="40" height="30" as="geometry" />
        </mxCell>
        <mxCell id="vZsECd-TPxy-p9VHk9jS-51" style="edgeStyle=orthogonalEdgeStyle;rounded=0;orthogonalLoop=1;jettySize=auto;html=1;entryX=0.5;entryY=0;entryDx=0;entryDy=0;fontSize=12;" edge="1" parent="WIyWlLk6GJQsqaUBKTNV-1" source="vZsECd-TPxy-p9VHk9jS-43" target="vZsECd-TPxy-p9VHk9jS-47">
          <mxGeometry relative="1" as="geometry" />
        </mxCell>
        <mxCell id="vZsECd-TPxy-p9VHk9jS-43" value="+1 IndexOfLastBranch Return Data" style="whiteSpace=wrap;html=1;rounded=1;" vertex="1" parent="WIyWlLk6GJQsqaUBKTNV-1">
          <mxGeometry x="120" y="730" width="120" height="60" as="geometry" />
        </mxCell>
        <mxCell id="vZsECd-TPxy-p9VHk9jS-45" value="&amp;gt;400" style="text;html=1;align=center;verticalAlign=middle;resizable=0;points=[];autosize=1;strokeColor=none;fillColor=none;fontSize=12;" vertex="1" parent="WIyWlLk6GJQsqaUBKTNV-1">
          <mxGeometry x="255" y="725" width="50" height="30" as="geometry" />
        </mxCell>
        <mxCell id="vZsECd-TPxy-p9VHk9jS-54" style="edgeStyle=orthogonalEdgeStyle;rounded=0;orthogonalLoop=1;jettySize=auto;html=1;entryX=0.5;entryY=0;entryDx=0;entryDy=0;fontSize=12;" edge="1" parent="WIyWlLk6GJQsqaUBKTNV-1" source="vZsECd-TPxy-p9VHk9jS-47" target="vZsECd-TPxy-p9VHk9jS-52">
          <mxGeometry relative="1" as="geometry" />
        </mxCell>
        <mxCell id="vZsECd-TPxy-p9VHk9jS-47" value="Data" style="swimlane;fontStyle=0;childLayout=stackLayout;horizontal=1;startSize=30;horizontalStack=0;resizeParent=1;resizeParentMax=0;resizeLast=0;collapsible=1;marginBottom=0;fontSize=12;" vertex="1" parent="WIyWlLk6GJQsqaUBKTNV-1">
          <mxGeometry x="110" y="850" width="140" height="120" as="geometry" />
        </mxCell>
        <mxCell id="vZsECd-TPxy-p9VHk9jS-48" value="IndexOfRoot = 0" style="text;strokeColor=none;fillColor=none;align=left;verticalAlign=middle;spacingLeft=4;spacingRight=4;overflow=hidden;points=[[0,0.5],[1,0.5]];portConstraint=eastwest;rotatable=0;fontSize=12;" vertex="1" parent="vZsECd-TPxy-p9VHk9jS-47">
          <mxGeometry y="30" width="140" height="30" as="geometry" />
        </mxCell>
        <mxCell id="vZsECd-TPxy-p9VHk9jS-49" value="IndexOfBranch = 1" style="text;strokeColor=none;fillColor=none;align=left;verticalAlign=middle;spacingLeft=4;spacingRight=4;overflow=hidden;points=[[0,0.5],[1,0.5]];portConstraint=eastwest;rotatable=0;fontSize=12;" vertex="1" parent="vZsECd-TPxy-p9VHk9jS-47">
          <mxGeometry y="60" width="140" height="30" as="geometry" />
        </mxCell>
        <mxCell id="vZsECd-TPxy-p9VHk9jS-50" value="ResponseCode = 500" style="text;strokeColor=none;fillColor=none;align=left;verticalAlign=middle;spacingLeft=4;spacingRight=4;overflow=hidden;points=[[0,0.5],[1,0.5]];portConstraint=eastwest;rotatable=0;fontSize=12;" vertex="1" parent="vZsECd-TPxy-p9VHk9jS-47">
          <mxGeometry y="90" width="140" height="30" as="geometry" />
        </mxCell>
        <mxCell id="vZsECd-TPxy-p9VHk9jS-55" style="edgeStyle=orthogonalEdgeStyle;rounded=0;orthogonalLoop=1;jettySize=auto;html=1;entryX=0;entryY=0.5;entryDx=0;entryDy=0;fontSize=12;strokeWidth=3;" edge="1" parent="WIyWlLk6GJQsqaUBKTNV-1" source="vZsECd-TPxy-p9VHk9jS-52" target="vZsECd-TPxy-p9VHk9jS-0">
          <mxGeometry relative="1" as="geometry">
            <Array as="points">
              <mxPoint x="30" y="1250" />
              <mxPoint x="30" y="250" />
            </Array>
          </mxGeometry>
        </mxCell>
        <mxCell id="vZsECd-TPxy-p9VHk9jS-52" value="send Data back to Input" style="rounded=1;whiteSpace=wrap;html=1;fontSize=12;" vertex="1" parent="WIyWlLk6GJQsqaUBKTNV-1">
          <mxGeometry x="120" y="1220" width="120" height="60" as="geometry" />
        </mxCell>
      </root>
    </mxGraphModel>
  </diagram>
</mxfile>
